<?xml version="1.0" encoding="UTF-8"?>
<!DOCTYPE svg PUBLIC "-//W3C//DTD SVG 1.1//EN" "http://www.w3.org/Graphics/SVG/1.1/DTD/svg11.dtd">
<!-- Creator: CorelDRAW 2018 (64-Bit) -->
<svg xmlns="http://www.w3.org/2000/svg" xml:space="preserve" width="30mm" height="30mm" version="1.1" style="shape-rendering:geometricPrecision; text-rendering:geometricPrecision; image-rendering:optimizeQuality; fill-rule:evenodd; clip-rule:evenodd"
viewBox="0 0 3000 3000"
 xmlns:xlink="http://www.w3.org/1999/xlink">
 <defs>
  <style type="text/css">
   <![CDATA[
    .fil0 {fill:forestgreen}
   ]]>
  </style>
 </defs>
 <g id="Слой_x0020_1">
  <metadata id="CorelCorpID_0Corel-Layer"/>
  <g id="_2102188069904">
   <path class="fil0" d="M1809.31 1631.47c591.55,289.89 355.65,1142.45 -313.76,1136.8 -691.3,-5.82 -921.69,-884.78 -299.94,-1160.04l0 -1068.93c0,-358.35 613.7,-369.66 613.7,16.23l0 1075.94zm-92.68 43.2c568.07,237.37 366.93,1021 -216.21,1011 -630.28,-10.8 -809.99,-806.17 -228,-1015.69l11.37 -1150.39c2.18,-221.15 438.96,-213.35 438.02,1.52l-5.18 1153.56z"/>
   <path class="fil0" d="M1634.99 1743.49c185.35,57.14 318.94,219.3 318.94,418.84 0,249.73 -209.25,432.07 -467.31,432.07 -258.06,0 -467.29,-182.34 -467.29,-432.07 0,-205.85 142.19,-371.9 336.65,-423.92l0 -1158.3c0,-159.63 279.01,-160.11 279.01,0l0 1163.38z"/>
  </g>
 </g>
</svg>
