<?xml version="1.0" encoding="UTF-8"?>
<!DOCTYPE svg PUBLIC "-//W3C//DTD SVG 1.1//EN" "http://www.w3.org/Graphics/SVG/1.1/DTD/svg11.dtd">
<!-- Creator: CorelDRAW 2018 (64-Bit) -->
<svg xmlns="http://www.w3.org/2000/svg" xml:space="preserve" width="30mm" height="30mm" version="1.1" style="shape-rendering:geometricPrecision; text-rendering:geometricPrecision; image-rendering:optimizeQuality; fill-rule:evenodd; clip-rule:evenodd"
viewBox="0 0 3000 3000"
 xmlns:xlink="http://www.w3.org/1999/xlink">
 <defs>
  <style type="text/css">
   <![CDATA[
    .fil0 {fill:forestgreen}
   ]]>
  </style>
 </defs>
 <g id="Слой_x0020_1">
  <metadata id="CorelCorpID_0Corel-Layer"/>
  <path class="fil0" d="M1059.45 250.8c321.67,0 511.48,0 833.16,0 191.61,-11.93 343.22,111.99 345.64,302.93 0,640.56 0,1281.09 0,1921.65 0,190.92 -149.83,263.67 -339.64,274.62 -288.11,0 -492.35,0 -780.46,0 -180.2,0 -356.42,-83.04 -356.42,-274.62 0,-640.56 0,-1281.09 0,-1921.65 3.61,-188.38 140.26,-290.07 297.72,-302.93zm4.8 130.69c-146.91,17.27 -187.63,123.77 -182.96,231.54 0,640.56 -4.63,1203 -4.63,1843.56 2.42,129.71 145.67,162.72 219.84,162.72 258.9,0 517.83,0 776.74,0 106.71,-0.89 241.49,-50.92 245.1,-203.9 0,-640.4 6.5,-1236.79 4.63,-1877.18 -10.48,-109.38 -129.74,-157.51 -247.38,-156.74 -275.85,0 -535.49,0 -811.34,0z"/>
 </g>
</svg>
