<?xml version="1.0" encoding="UTF-8"?>
<!DOCTYPE svg PUBLIC "-//W3C//DTD SVG 1.1//EN" "http://www.w3.org/Graphics/SVG/1.1/DTD/svg11.dtd">
<!-- Creator: CorelDRAW 2018 (64-Bit) -->
<svg xmlns="http://www.w3.org/2000/svg" xml:space="preserve" width="30mm" height="30mm" version="1.1" style="shape-rendering:geometricPrecision; text-rendering:geometricPrecision; image-rendering:optimizeQuality; fill-rule:evenodd; clip-rule:evenodd"
viewBox="0 0 3000 3000"
 xmlns:xlink="http://www.w3.org/1999/xlink">
 <defs>
  <style type="text/css">
   <![CDATA[
    .fil0 {fill:forestgreen}
   ]]>
  </style>
 </defs>
 <g id="Слой_x0020_1">
  <metadata id="CorelCorpID_0Corel-Layer"/>
  <g id="_3005967442032">
   <path class="fil0" d="M1511.16 741.45c-113.59,328.71 -529.22,998.59 -514.25,1218.24 -5.05,746.92 1016.22,722.27 1001.46,3.38 -13.81,-286.53 -404.5,-915.48 -487.21,-1221.62z"/>
   <path class="fil0" d="M1521.89 250c-142.43,468.79 -724,1388.32 -723.91,1710.76l-0.02 4.24c-16.12,1022.67 1424.64,1062.63 1404.01,22.61 -7.47,-374.38 -542.23,-1318.03 -680.08,-1737.61zm-8.69 256.97c-127.25,391.56 -615.99,1156.86 -604.83,1455.86 -5.64,889.73 1188.04,894.75 1171.5,38.42 9.91,-384.26 -463.56,-1117.09 -566.67,-1494.28z"/>
  </g>
 </g>
</svg>
