<?xml version="1.0" encoding="UTF-8"?>
<!DOCTYPE svg PUBLIC "-//W3C//DTD SVG 1.1//EN" "http://www.w3.org/Graphics/SVG/1.1/DTD/svg11.dtd">
<!-- Creator: CorelDRAW 2018 (64-Bit) -->
<svg xmlns="http://www.w3.org/2000/svg" xml:space="preserve" width="30mm" height="30mm" version="1.1" style="shape-rendering:geometricPrecision; text-rendering:geometricPrecision; image-rendering:optimizeQuality; fill-rule:evenodd; clip-rule:evenodd"
viewBox="0 0 3000 3000"
 xmlns:xlink="http://www.w3.org/1999/xlink">
 <defs>
  <style type="text/css">
   <![CDATA[
    .fil0 {fill:forestgreen}
   ]]>
  </style>
 </defs>
 <g id="Слой_x0020_1">
  <metadata id="CorelCorpID_0Corel-Layer"/>
  <g id="_3005965829184">
   <path class="fil0" d="M1017.32 2201.57c28.13,242.81 293.54,330.39 497.52,323.04 301.42,-10.86 462.15,-235.05 463.82,-412.65 -18.42,-14.85 -205.95,150.2 -465.07,126.93 -118.07,-10.6 -228.24,-117.46 -324.75,-146.92 -69.57,-21.26 -175.16,12.8 -171.52,109.6z"/>
   <path class="fil0" d="M1521.82 249.99c-142.05,468.8 -722.06,1388.32 -721.97,1710.77l-0.02 4.23c-16.08,1022.67 1420.82,1062.64 1400.24,22.61 -7.45,-374.38 -540.77,-1318.03 -678.25,-1737.61zm-8.68 256.98c-126.9,391.56 -614.33,1156.85 -603.2,1455.86 -5.63,889.72 1184.86,894.74 1168.36,38.41 9.88,-384.25 -462.32,-1117.09 -565.16,-1494.27z"/>
  </g>
 </g>
</svg>
