<?xml version="1.0" encoding="UTF-8"?>
<!DOCTYPE svg PUBLIC "-//W3C//DTD SVG 1.1//EN" "http://www.w3.org/Graphics/SVG/1.1/DTD/svg11.dtd">
<!-- Creator: CorelDRAW 2018 (64-Bit) -->
<svg xmlns="http://www.w3.org/2000/svg" xml:space="preserve" width="30mm" height="30mm" version="1.1" style="shape-rendering:geometricPrecision; text-rendering:geometricPrecision; image-rendering:optimizeQuality; fill-rule:evenodd; clip-rule:evenodd"
viewBox="0 0 3000 3000"
 xmlns:xlink="http://www.w3.org/1999/xlink">
 <defs>
  <style type="text/css">
   <![CDATA[
    .fil0 {fill:forestgreen}
   ]]>
  </style>
 </defs>
 <g id="Слой_x0020_1">
  <metadata id="CorelCorpID_0Corel-Layer"/>
  <g id="_3005971041568">
   <path class="fil0" d="M1092.34 1631.41c-60.69,138.68 -101.11,257.14 -96.25,328.27 -5.06,746.93 1017.86,722.27 1003.08,3.38 -3.63,-75.32 -33.39,-174.4 -76.73,-284.93 -386.48,57.76 -556.99,-379.95 -830.1,-46.72z"/>
   <path class="fil0" d="M1521.92 249.99c-142.66,468.8 -725.17,1388.32 -725.08,1710.77l-0.02 4.23c-16.15,1022.67 1426.94,1062.64 1406.27,22.61 -7.47,-374.38 -543.1,-1318.03 -681.17,-1737.61zm-8.71 256.98c-127.45,391.56 -616.98,1156.85 -605.81,1455.86 -5.65,889.72 1189.97,894.74 1173.4,38.41 9.92,-384.25 -464.31,-1117.09 -567.59,-1494.27z"/>
  </g>
 </g>
</svg>
