<?xml version="1.0" encoding="UTF-8"?>
<!DOCTYPE svg PUBLIC "-//W3C//DTD SVG 1.1//EN" "http://www.w3.org/Graphics/SVG/1.1/DTD/svg11.dtd">
<!-- Creator: CorelDRAW 2018 (64-Bit) -->
<svg xmlns="http://www.w3.org/2000/svg" xml:space="preserve" width="30mm" height="30mm" version="1.1" style="shape-rendering:geometricPrecision; text-rendering:geometricPrecision; image-rendering:optimizeQuality; fill-rule:evenodd; clip-rule:evenodd"
viewBox="0 0 3000 3000"
 xmlns:xlink="http://www.w3.org/1999/xlink">
 <defs>
  <style type="text/css">
   <![CDATA[
    .fil0 {fill:forestgreen}
   ]]>
  </style>
 </defs>
 <g id="Слой_x0020_1">
  <metadata id="CorelCorpID_0Corel-Layer"/>
  <g id="_3005745895184">
   <path class="fil0" d="M1521.96 250c-142.89,468.8 -726.31,1388.32 -726.23,1710.77l-0.02 4.23c-16.17,1022.68 1429.2,1062.64 1408.49,22.61 -7.48,-374.38 -543.95,-1318.03 -682.24,-1737.61zm-8.73 256.97c-127.65,391.57 -617.95,1156.86 -606.76,1455.87 -5.66,889.72 1191.85,894.75 1175.25,38.41 9.94,-384.25 -465.04,-1117.09 -568.49,-1494.28z"/>
   <path class="fil0" d="M1521.96 250c-142.89,468.8 -726.31,1388.32 -726.23,1710.77l-0.02 4.23c-16.17,1022.68 1429.2,1062.64 1408.49,22.61 -7.48,-374.38 -543.95,-1318.03 -682.24,-1737.61zm-8.73 256.97c-127.65,391.57 -617.95,1156.86 -606.76,1455.87 -5.66,889.72 1191.85,894.75 1175.25,38.41 9.94,-384.25 -465.04,-1117.09 -568.49,-1494.28z"/>
   <polygon class="fil0" points="1352.69,1393.3 1643.53,1393.3 1643.53,2360.23 1352.69,2360.23 "/>
   <polygon class="fil0" points="1930.28,2039.38 1930.28,1714.03 1065.91,1714.03 1065.91,2039.38 "/>
  </g>
 </g>
</svg>
