<?xml version="1.0" encoding="UTF-8"?>
<!DOCTYPE svg PUBLIC "-//W3C//DTD SVG 1.1//EN" "http://www.w3.org/Graphics/SVG/1.1/DTD/svg11.dtd">
<!-- Creator: CorelDRAW 2018 (64-Bit) -->
<svg xmlns="http://www.w3.org/2000/svg" xml:space="preserve" width="30mm" height="30mm" version="1.1" style="shape-rendering:geometricPrecision; text-rendering:geometricPrecision; image-rendering:optimizeQuality; fill-rule:evenodd; clip-rule:evenodd"
viewBox="0 0 3000 3000"
 xmlns:xlink="http://www.w3.org/1999/xlink">
 <defs>
  <style type="text/css">
   <![CDATA[
    .fil0 {fill:forestgreen}
   ]]>
  </style>
 </defs>
 <g id="Слой_x0020_1">
  <metadata id="CorelCorpID_0Corel-Layer"/>
  <g id="_3005891144832">
   <path class="fil0" d="M2248.84 1325.97l-42.74 939.22c-12.09,266.11 -249.48,484.8 -503.45,484.8l-348.24 0c-277.88,0 -506.1,-215.04 -529.38,-505.67l-73.63 -918.35c-11.55,-144.37 203,-443.16 469.26,-499.84l0 -409.56c0,-91.62 71.46,-166.57 158.79,-166.57l264.61 0c87.33,0 158.79,74.98 158.79,166.57l0 414.44c253.17,59.3 453.29,334.12 445.99,494.96zm-89.83 -4.5c3.17,-70.22 -61.07,-168.76 -102.99,-218.71 -70.39,-83.86 -167.75,-155.06 -272.77,-179.66l-70.35 -16.49 0 -490.04c0,-39.53 -31.16,-72.22 -68.84,-72.22l-264.61 0c-37.68,0 -68.85,32.69 -68.85,72.22l0 486.68 -72.04 15.35c-41.9,8.93 -82.23,25.25 -119.93,46.24 -80.6,44.93 -154.91,114.53 -208.9,191.63 -24.4,34.84 -72.36,116.1 -68.71,161.6l73.64 918.35c19.44,242.34 209.17,419.22 439.75,419.22l348.24 0c203.36,0 403.69,-176.73 413.62,-394.95l42.74 -939.22zm-303.11 -611.63c114.58,0 248.46,105.15 158.09,225.2 -20.33,-15.22 -46.41,-33.41 -68.44,-46.09 49.86,-70.44 -49.5,-128.55 -142.7,-95.4l0 -78.24c16.83,-3.57 34.63,-5.47 53.05,-5.47z"/>
   <path class="fil0" d="M1994.23 2326.2c-66.15,125.58 -215.84,215.22 -351.94,215.22l-244.51 0c-148.97,0 -299.02,-87.95 -367.3,-220.55 -1.11,-2.19 964.64,3.64 963.75,5.33z"/>
  </g>
 </g>
</svg>
