<?xml version="1.0" encoding="UTF-8"?>
<!DOCTYPE svg PUBLIC "-//W3C//DTD SVG 1.1//EN" "http://www.w3.org/Graphics/SVG/1.1/DTD/svg11.dtd">
<!-- Creator: CorelDRAW 2018 (64-Bit) -->
<svg xmlns="http://www.w3.org/2000/svg" xml:space="preserve" width="30mm" height="30mm" version="1.1" style="shape-rendering:geometricPrecision; text-rendering:geometricPrecision; image-rendering:optimizeQuality; fill-rule:evenodd; clip-rule:evenodd"
viewBox="0 0 3000 3000"
 xmlns:xlink="http://www.w3.org/1999/xlink">
 <defs>
  <style type="text/css">
   <![CDATA[
    .fil0 {fill:forestgreen}
   ]]>
  </style>
 </defs>
 <g id="Слой_x0020_1">
  <metadata id="CorelCorpID_0Corel-Layer"/>
  <g id="_3006001589328">
   <path class="fil0" d="M1059.46 250.8c321.67,0 511.48,0 833.16,0 191.61,-11.93 343.22,111.99 345.63,302.93 0,640.56 0,1281.09 0,1921.65 0,190.92 -149.82,263.67 -339.63,274.62 -288.11,0 -492.35,0 -780.46,0 -180.2,0 -356.42,-83.04 -356.42,-274.62 0,-640.56 0,-1281.09 0,-1921.65 3.61,-188.38 140.26,-290.07 297.72,-302.93zm4.8 130.69c-146.91,17.27 -187.64,123.77 -182.96,231.54 0,640.56 -4.63,1203 -4.63,1843.56 2.41,129.71 145.67,162.72 219.83,162.72 258.91,0 517.84,0 776.74,0 106.72,-0.89 241.5,-50.92 245.1,-203.9 0,-640.4 6.51,-1236.79 4.64,-1877.18 -10.48,-109.38 -129.74,-157.51 -247.39,-156.74 -275.84,0 -535.49,0 -811.33,0z"/>
   <path class="fil0" d="M1193.6 481.83c228.73,0 363.69,0 592.41,0 136.26,-9.74 244.04,91.28 245.78,246.9 0,522.1 0,1044.18 0,1566.28 0,155.62 -106.54,214.92 -241.51,223.84 -204.84,0 -350.08,0 -554.93,0 -128.13,0 -253.43,-67.68 -253.43,-223.84 0,-522.1 0,-1044.18 0,-1566.28 2.57,-153.55 99.73,-236.42 211.68,-246.9zm177.51 864.02l0.02 1.91 0 859.03c0,42.72 -32.55,77.69 -72.36,77.69l0 0c-39.81,0 -72.36,-34.97 -72.36,-77.69l0 -859.03 0 -0.79c-59.09,-29.18 -100.45,-93.45 -100.45,-167.6 0,-149.44 0,-298.85 0,-448.28 0.81,-30.75 43.47,-32.22 44.12,-4.44l0 364.78c0,30.58 53.07,28.2 53.07,-2.45 0,-135.13 0,-262.06 0,-397.18 0,-39.67 43.99,-32.59 43.42,0.04l4.42 398.33c0.34,30.53 54.66,31.33 54.89,-0.28 1.03,-135.13 0,-264.46 0,-399.59 2.7,-43.58 42.97,-42.02 44.51,1.54l0 399.59c0,30.6 53.94,30.65 53.94,0 0,-121.75 0,-243.47 0,-365.22 1.35,-36.49 44.88,-35.88 45.01,-0.07l0 453.23c0,73.14 -40.31,136.76 -98.23,166.48zm410.03 -688.11l0 0c53.4,0 97.08,46.9 97.08,104.23l0 100.11 0 720.14 0 650.51c0,31.84 -24.24,57.87 -53.9,57.87l0 0c-29.65,0 -53.89,-26.03 -53.89,-57.87l0 -546.9c-48.4,-5.77 -86.36,-50.17 -86.36,-103.61l0 -820.25c0,-57.33 43.68,-104.23 97.07,-104.23z"/>
  </g>
 </g>
</svg>
