<?xml version="1.0" encoding="UTF-8"?>
<!DOCTYPE svg PUBLIC "-//W3C//DTD SVG 1.1//EN" "http://www.w3.org/Graphics/SVG/1.1/DTD/svg11.dtd">
<!-- Creator: CorelDRAW 2018 (64-Bit) -->
<svg xmlns="http://www.w3.org/2000/svg" xml:space="preserve" width="30mm" height="30mm" version="1.1" style="shape-rendering:geometricPrecision; text-rendering:geometricPrecision; image-rendering:optimizeQuality; fill-rule:evenodd; clip-rule:evenodd"
viewBox="0 0 3000 3000"
 xmlns:xlink="http://www.w3.org/1999/xlink">
 <defs>
  <style type="text/css">
   <![CDATA[
    .fil0 {fill:forestgreen}
   ]]>
  </style>
 </defs>
 <g id="Слой_x0020_1">
  <metadata id="CorelCorpID_0Corel-Layer"/>
  <g id="_2066127960976">
   <path class="fil0" d="M1815.58 1615.71c585.35,296.42 351.93,1168.19 -310.47,1162.41 -684.05,-5.95 -912.02,-904.71 -296.79,-1186.17l0 -1093.02c0,-366.42 607.26,-377.99 607.26,16.6l0 1100.18zm-91.7 44.17c562.11,242.72 363.08,1044 -213.94,1033.78 -623.68,-11.04 -801.49,-824.33 -225.61,-1038.58l11.25 -1176.3c2.15,-226.14 434.35,-218.16 433.42,1.55l-5.12 1179.55z"/>
   <path class="fil0" d="M1823.67 2469c-83.4,76.7 -197.64,122.12 -323.68,122.12 -126.04,0 -240.28,-45.42 -323.69,-122.12l647.37 0z"/>
  </g>
 </g>
</svg>
