<?xml version="1.0" encoding="UTF-8"?>
<!DOCTYPE svg PUBLIC "-//W3C//DTD SVG 1.1//EN" "http://www.w3.org/Graphics/SVG/1.1/DTD/svg11.dtd">
<!-- Creator: CorelDRAW 2018 (64-Bit) -->
<svg xmlns="http://www.w3.org/2000/svg" xml:space="preserve" width="30mm" height="30mm" version="1.1" style="shape-rendering:geometricPrecision; text-rendering:geometricPrecision; image-rendering:optimizeQuality; fill-rule:evenodd; clip-rule:evenodd"
viewBox="0 0 3000 3000"
 xmlns:xlink="http://www.w3.org/1999/xlink">
 <defs>
  <style type="text/css">
   <![CDATA[
    .fil0 {fill:forestgreen}
   ]]>
  </style>
 </defs>
 <g id="Слой_x0020_1">
  <metadata id="CorelCorpID_0Corel-Layer"/>
  <g id="_3005962540320">
   <path class="fil0" d="M1007.05 1959.69c-0.5,842.41 1196.7,647.25 987.43,-99.65 -18.1,-14.85 -201.15,158.15 -406.84,98.46 -237.06,-68.81 -281.69,-243.93 -440.81,-225.98 -60.78,6.85 -136.48,53.12 -139.78,227.17z"/>
   <path class="fil0" d="M1521.44 250c-139.56,468.79 -709.39,1388.32 -709.31,1710.76l-0.02 4.24c-15.79,1022.67 1395.9,1062.63 1375.68,22.61 -7.31,-374.38 -531.28,-1318.03 -666.35,-1737.61zm-8.52 256.97c-124.68,391.56 -603.56,1156.86 -592.63,1455.86 -5.53,889.73 1164.08,894.75 1147.87,38.42 9.71,-384.26 -454.21,-1117.09 -555.24,-1494.28z"/>
  </g>
 </g>
</svg>
