<?xml version="1.0" encoding="UTF-8"?>
<!DOCTYPE svg PUBLIC "-//W3C//DTD SVG 1.1//EN" "http://www.w3.org/Graphics/SVG/1.1/DTD/svg11.dtd">
<!-- Creator: CorelDRAW 2018 (64-Bit) -->
<svg xmlns="http://www.w3.org/2000/svg" xml:space="preserve" width="30mm" height="30mm" version="1.1" style="shape-rendering:geometricPrecision; text-rendering:geometricPrecision; image-rendering:optimizeQuality; fill-rule:evenodd; clip-rule:evenodd"
viewBox="0 0 3000 3000"
 xmlns:xlink="http://www.w3.org/1999/xlink">
 <defs>
  <style type="text/css">
   <![CDATA[
    .fil0 {fill:forestgreen}
   ]]>
  </style>
 </defs>
 <g id="Слой_x0020_1">
  <metadata id="CorelCorpID_0Corel-Layer"/>
  <g id="_2102184021840">
   <path class="fil0" d="M1815.59 1615.71c585.34,296.42 351.92,1168.18 -310.47,1162.41 -684.05,-5.96 -912.02,-904.71 -296.79,-1186.17l0 -1093.01c0,-366.42 607.26,-377.99 607.26,16.6l0 1100.17zm-91.71 44.17c562.11,242.72 363.08,1044 -213.94,1033.77 -623.67,-11.04 -801.49,-824.32 -225.6,-1038.57l11.24 -1176.29c2.16,-226.14 434.35,-218.16 433.43,1.55l-5.13 1179.54z"/>
   <path class="fil0" d="M1646.81 1721.05c183.41,58.43 315.59,224.23 315.59,428.28 0,255.35 -207.05,441.79 -462.41,441.79 -255.35,0 -462.38,-186.44 -462.38,-441.79 0,-210.49 140.69,-380.29 333.12,-433.48l0 -243.24 276.08 0 0 248.44z"/>
   <path class="fil0" d="M1646.81 1721.05c183.41,58.43 315.59,224.23 315.59,428.28 0,255.35 -207.05,441.79 -462.41,441.79 -255.35,0 -462.38,-186.44 -462.38,-441.79 0,-210.49 140.69,-380.29 333.12,-433.48l0 -243.24 276.08 0 0 248.44z"/>
  </g>
 </g>
</svg>
