<?xml version="1.0" encoding="UTF-8"?>
<!DOCTYPE svg PUBLIC "-//W3C//DTD SVG 1.1//EN" "http://www.w3.org/Graphics/SVG/1.1/DTD/svg11.dtd">
<!-- Creator: CorelDRAW 2018 (64-Bit) -->
<svg xmlns="http://www.w3.org/2000/svg" xml:space="preserve" width="30mm" height="30mm" version="1.1" style="shape-rendering:geometricPrecision; text-rendering:geometricPrecision; image-rendering:optimizeQuality; fill-rule:evenodd; clip-rule:evenodd"
viewBox="0 0 3000 3000"
 xmlns:xlink="http://www.w3.org/1999/xlink">
 <defs>
  <style type="text/css">
   <![CDATA[
    .fil0 {fill:forestgreen}
   ]]>
  </style>
 </defs>
 <g id="Слой_x0020_1">
  <metadata id="CorelCorpID_0Corel-Layer"/>
  <g id="_3005971017824">
   <path class="fil0" d="M2248.85 1325.97l-42.74 939.22c-12.09,266.11 -249.48,484.8 -503.45,484.8l-348.24 0c-277.88,0 -506.11,-215.05 -529.38,-505.67l-73.63 -918.35c-11.55,-144.38 203,-443.16 469.26,-499.85l0 -409.55c0,-91.62 71.46,-166.58 158.79,-166.58l264.61 0c87.33,0 158.79,74.98 158.79,166.58l0 414.43c253.17,59.3 453.29,334.13 445.99,494.97zm-89.83 -4.5c3.17,-70.22 -61.07,-168.76 -102.99,-218.71 -70.39,-83.86 -167.75,-155.06 -272.77,-179.67l-70.35 -16.49 0 -490.03c0,-39.53 -31.16,-72.23 -68.84,-72.23l-264.61 0c-37.68,0 -68.85,32.7 -68.85,72.23l0 486.68 -72.04 15.35c-41.9,8.92 -82.23,25.25 -119.93,46.23 -80.6,44.93 -154.91,114.54 -208.9,191.64 -24.41,34.83 -72.36,116.1 -68.71,161.6l73.63 918.35c19.44,242.34 209.17,419.22 439.76,419.22l348.24 0c203.36,0 403.69,-176.74 413.62,-394.95l42.74 -939.22zm-303.11 -611.64c114.58,0 248.46,105.16 158.09,225.21 -20.33,-15.23 -46.41,-33.41 -68.44,-46.09 49.86,-70.44 -49.49,-128.55 -142.7,-95.4l0 -78.24c16.83,-3.57 34.64,-5.48 53.05,-5.48z"/>
   <path class="fil0" d="M2059.57 1379.77l-30.74 821.24c-6.96,186.8 -208.33,340.4 -386.53,340.4l-244.51 0c-195.02,0 -391.91,-150.7 -404.73,-355.06l-48.88 -778.71c-3.04,-48.5 10.98,-97.9 37.72,-144.45l1031.55 0 14.5 0c21.23,38.01 33.07,77.48 31.62,116.58z"/>
  </g>
 </g>
</svg>
