<?xml version="1.0" encoding="UTF-8"?>
<!DOCTYPE svg PUBLIC "-//W3C//DTD SVG 1.1//EN" "http://www.w3.org/Graphics/SVG/1.1/DTD/svg11.dtd">
<!-- Creator: CorelDRAW 2018 (64-Bit) -->
<svg xmlns="http://www.w3.org/2000/svg" xml:space="preserve" width="30mm" height="30mm" version="1.1" style="shape-rendering:geometricPrecision; text-rendering:geometricPrecision; image-rendering:optimizeQuality; fill-rule:evenodd; clip-rule:evenodd"
viewBox="0 0 3000 3000"
 xmlns:xlink="http://www.w3.org/1999/xlink">
 <defs>
  <style type="text/css">
   <![CDATA[
    .str0 {stroke:forestgreen;stroke-width:20;stroke-miterlimit:22.9256}
    .fil1 {fill:none}
    .fil0 {fill:forestgreen}
   ]]>
  </style>
 </defs>
 <g id="Слой_x0020_1">
  <metadata id="CorelCorpID_0Corel-Layer"/>
  <g id="_3006002955248">
   <path class="fil0" d="M1059.59 250.8c321.57,0 511.32,0 832.9,0 191.55,-11.93 343.11,111.99 345.52,302.94 0,640.55 0,1281.09 0,1921.65 0,190.92 -149.77,263.66 -339.52,274.61 -288.02,0 -492.2,0 -780.21,0 -180.15,0 -356.31,-83.04 -356.31,-274.61 0,-640.56 0,-1281.1 0,-1921.65 3.61,-188.38 140.21,-290.07 297.62,-302.94zm4.8 130.69c-146.86,17.28 -187.57,123.78 -182.9,231.54 0,640.56 -4.63,1203.01 -4.63,1843.56 2.42,129.71 145.63,162.72 219.77,162.72 258.82,0 517.67,0 776.49,0 106.68,-0.88 241.41,-50.91 245.02,-203.9 0,-640.39 6.5,-1236.78 4.63,-1877.17 -10.47,-109.38 -129.69,-157.52 -247.3,-156.75 -275.76,0 -535.32,0 -811.08,0z"/>
   <path class="fil1 str0" d="M1780.29 659.05l0 0c53.39,0 97.06,46.9 97.06,104.23l0 100.11 0 720.15 0 650.5c0,31.84 -24.24,57.87 -53.88,57.87l0 0c-29.65,0 -53.88,-26.03 -53.88,-57.87l0 -546.9c-48.39,-5.77 -86.34,-50.17 -86.34,-103.6l0 -820.26c0,-57.33 43.66,-104.23 97.04,-104.23z"/>
   <path class="fil1 str0" d="M1373.81 1347.16l0.03 1.92 0 859.03c0,42.71 -32.54,77.69 -72.34,77.69l0 0c-39.79,0 -72.33,-34.98 -72.33,-77.69l0 -859.03 0 -0.8c-59.07,-29.18 -100.42,-93.45 -100.42,-167.6 0,-149.43 0,-298.85 0,-448.28 0.81,-30.74 43.45,-32.22 44.11,-4.44l0 364.78c0,30.58 53.05,28.2 53.05,-2.46 0,-135.11 0,-262.05 0,-397.18 0,-39.65 43.97,-32.59 43.4,0.06l4.42 398.32c0.34,30.54 54.64,31.33 54.88,-0.29 1.02,-135.11 0,-264.45 0,-399.58 2.7,-43.58 42.94,-42.02 44.5,1.55l0 399.58c0,30.6 53.92,30.66 53.92,0 0,-121.75 0,-243.47 0,-365.22 1.35,-36.48 44.85,-35.88 44.99,-0.07l0 453.23c0,73.14 -40.29,136.76 -98.21,166.48z"/>
   <path class="fil0" d="M2025.87 661.71c0,522.1 0,1112.49 0,1634.59 0,155.62 -106.5,214.92 -241.44,223.84 -204.77,0 -349.95,0 -554.75,0 -128.08,0 -253.35,-67.68 -253.35,-223.84 0,0 -2.2,-1347.05 -2.2,-1347.05 55.29,36.1 106.69,67.83 154.62,95.57l0 135.86c0,74.15 41.35,138.42 100.42,167.6l0 0.8 0 859.03c0,42.71 32.54,77.69 72.33,77.69l0 0c39.8,0 72.34,-34.98 72.34,-77.69l0 -859.03 -0.03 -1.92c54.76,-28.1 93.76,-86.48 97.86,-154.58 88.74,18.61 156.29,9.8 211.58,-19.2l0 410.16c0,53.43 37.95,97.83 86.34,103.6l0 546.9c0,31.84 24.23,57.87 53.88,57.87l0 0c29.64,0 53.88,-26.03 53.88,-57.87l0 -650.5 0 -647.97c43.87,-82.69 89,-177.49 148.52,-273.86zm-853.01 408.05c17.82,9.83 35.15,19.06 51.96,27.71 -7.56,23.62 -51.96,23.25 -51.96,-4.73l0 -22.98z"/>
  </g>
 </g>
</svg>
