<?xml version="1.0" encoding="UTF-8"?>
<!DOCTYPE svg PUBLIC "-//W3C//DTD SVG 1.1//EN" "http://www.w3.org/Graphics/SVG/1.1/DTD/svg11.dtd">
<!-- Creator: CorelDRAW 2018 (64-Bit) -->
<svg xmlns="http://www.w3.org/2000/svg" xml:space="preserve" width="30mm" height="30mm" version="1.1" style="shape-rendering:geometricPrecision; text-rendering:geometricPrecision; image-rendering:optimizeQuality; fill-rule:evenodd; clip-rule:evenodd"
viewBox="0 0 3000 3000"
 xmlns:xlink="http://www.w3.org/1999/xlink">
 <defs>
  <style type="text/css">
   <![CDATA[
    .fil0 {fill:forestgreen}
   ]]>
  </style>
 </defs>
 <g id="Слой_x0020_1">
  <metadata id="CorelCorpID_0Corel-Layer"/>
  <g id="_2065890648016">
   <path class="fil0" d="M1815.37 1613.16c584.96,289.89 351.69,1142.45 -310.26,1136.8 -683.59,-5.83 -911.41,-884.78 -296.59,-1160.04l0 -1068.93c0,-358.35 606.85,-369.66 606.85,16.23l0 1075.94zm-91.64 43.2c561.74,237.37 362.84,1020.99 -213.8,1010.99 -623.25,-10.79 -800.95,-806.16 -225.45,-1015.69l11.24 -1150.38c2.15,-221.15 434.06,-213.35 433.13,1.52l-5.12 1153.56z"/>
   <path class="fil0" d="M1646.71 1713.48c183.28,57.14 315.38,219.3 315.38,418.84 0,249.73 -206.92,432.06 -462.1,432.06 -255.18,0 -462.08,-182.33 -462.08,-432.06 0,-205.85 140.61,-371.9 332.9,-423.92l0 -714.13 275.9 0 0 719.21z"/>
  </g>
 </g>
</svg>
