<?xml version="1.0" encoding="UTF-8"?>
<!DOCTYPE svg PUBLIC "-//W3C//DTD SVG 1.1//EN" "http://www.w3.org/Graphics/SVG/1.1/DTD/svg11.dtd">
<!-- Creator: CorelDRAW 2018 (64-Bit) -->
<svg xmlns="http://www.w3.org/2000/svg" xml:space="preserve" width="30mm" height="30mm" version="1.1" style="shape-rendering:geometricPrecision; text-rendering:geometricPrecision; image-rendering:optimizeQuality; fill-rule:evenodd; clip-rule:evenodd"
viewBox="0 0 3000 3000"
 xmlns:xlink="http://www.w3.org/1999/xlink">
 <defs>
  <style type="text/css">
   <![CDATA[
    .fil0 {fill:forestgreen}
   ]]>
  </style>
 </defs>
 <g id="Слой_x0020_1">
  <metadata id="CorelCorpID_0Corel-Layer"/>
  <g id="_3006000267024">
   <path class="fil0" d="M1305.18 1196.6c-148.82,300.67 -312.13,623.19 -302.69,763.08 -4.99,746.93 1004.94,722.27 990.34,3.38 -6.31,-132.28 -92.07,-337.53 -190.58,-550.3 -296.34,143.34 -399.4,-110.82 -497.07,-216.16z"/>
   <path class="fil0" d="M1521.64 249.99c-140.85,468.8 -715.96,1388.32 -715.87,1710.77l-0.03 4.23c-15.93,1022.67 1408.83,1062.64 1388.43,22.61 -7.39,-374.38 -536.21,-1318.03 -672.53,-1737.61zm-8.6 256.98c-125.83,391.56 -609.14,1156.85 -598.11,1455.86 -5.58,889.72 1174.86,894.74 1158.5,38.41 9.79,-384.25 -458.42,-1117.09 -560.39,-1494.27z"/>
  </g>
 </g>
</svg>
