<?xml version="1.0" encoding="UTF-8"?>
<!DOCTYPE svg PUBLIC "-//W3C//DTD SVG 1.1//EN" "http://www.w3.org/Graphics/SVG/1.1/DTD/svg11.dtd">
<!-- Creator: CorelDRAW 2018 (64-Bit) -->
<svg xmlns="http://www.w3.org/2000/svg" xml:space="preserve" width="30mm" height="30mm" version="1.1" style="shape-rendering:geometricPrecision; text-rendering:geometricPrecision; image-rendering:optimizeQuality; fill-rule:evenodd; clip-rule:evenodd"
viewBox="0 0 3000 3000"
 xmlns:xlink="http://www.w3.org/1999/xlink">
 <defs>
  <style type="text/css">
   <![CDATA[
    .str0 {stroke:forestgreen;stroke-width:20;stroke-miterlimit:22.9256}
    .fil1 {fill:none}
    .fil0 {fill:forestgreen}
   ]]>
  </style>
 </defs>
 <g id="Слой_x0020_1">
  <metadata id="CorelCorpID_0Corel-Layer"/>
  <g id="_3005969514016">
   <path class="fil0" d="M1059.45 250.79c321.68,0 511.49,0 833.16,0 191.62,-11.92 343.23,111.99 345.64,302.94 0,640.56 0,1281.09 0,1921.65 0,190.92 -149.83,263.66 -339.64,274.61 -288.1,0 -492.35,0 -780.45,0 -180.2,0 -356.42,-83.04 -356.42,-274.61 0,-640.56 0,-1281.09 0,-1921.65 3.6,-188.38 140.25,-290.07 297.71,-302.94zm4.81 130.69c-146.92,17.28 -187.64,123.78 -182.96,231.55 0,640.55 -4.64,1203 -4.64,1843.56 2.42,129.7 145.68,162.71 219.84,162.71 258.91,0 517.83,0 776.74,0 106.71,-0.88 241.49,-50.91 245.1,-203.9 0,-640.39 6.5,-1236.78 4.63,-1877.17 -10.48,-109.38 -129.73,-157.52 -247.38,-156.75 -275.84,0 -535.49,0 -811.33,0z"/>
   <path class="fil1 str0" d="M1781.14 657.74l0 0c53.4,0 97.08,46.89 97.08,104.23l0 100.11 0 720.15 0 650.49c0,31.85 -24.24,57.88 -53.9,57.88l0 0c-29.65,0 -53.9,-26.03 -53.9,-57.88l0 -546.9c-48.39,-5.76 -86.36,-50.16 -86.36,-103.59l0 -820.26c0,-57.34 43.68,-104.23 97.08,-104.23z"/>
   <path class="fil1 str0" d="M1371.1 1345.84l0.03 1.92 0 859.03c0,42.72 -32.55,77.7 -72.36,77.7l0 0c-39.81,0 -72.36,-34.98 -72.36,-77.7l0 -859.03 0 -0.8c-59.1,-29.17 -100.45,-93.44 -100.45,-167.59 0,-149.44 0,-298.85 0,-448.28 0.81,-30.75 43.47,-32.22 44.11,-4.45l0 364.78c0,30.58 53.08,28.21 53.08,-2.45 0,-135.12 0,-262.05 0,-397.18 0,-39.65 43.98,-32.59 43.42,0.06l4.41 398.32c0.35,30.54 54.66,31.32 54.91,-0.29 1.01,-135.12 0,-264.45 0,-399.58 2.68,-43.58 42.95,-42.03 44.49,1.55l0 399.57c0,30.61 53.95,30.66 53.95,0 0,-121.75 0,-243.47 0,-365.22 1.35,-36.48 44.87,-35.87 45,-0.07l0 453.24c0,73.14 -40.31,136.75 -98.23,166.47z"/>
  </g>
 </g>
</svg>
