<?xml version="1.0" encoding="UTF-8"?>
<!DOCTYPE svg PUBLIC "-//W3C//DTD SVG 1.1//EN" "http://www.w3.org/Graphics/SVG/1.1/DTD/svg11.dtd">
<!-- Creator: CorelDRAW 2018 (64-Bit) -->
<svg xmlns="http://www.w3.org/2000/svg" xml:space="preserve" width="30mm" height="30mm" version="1.1" style="shape-rendering:geometricPrecision; text-rendering:geometricPrecision; image-rendering:optimizeQuality; fill-rule:evenodd; clip-rule:evenodd"
viewBox="0 0 3000 3000"
 xmlns:xlink="http://www.w3.org/1999/xlink">
 <defs>
  <style type="text/css">
   <![CDATA[
    .fil0 {fill:forestgreen}
   ]]>
  </style>
 </defs>
 <g id="Слой_x0020_1">
  <metadata id="CorelCorpID_0Corel-Layer"/>
  <g id="_3005672134544">
   <path class="fil0" d="M2248.85 1325.97l-42.74 939.22c-12.09,266.11 -249.47,484.8 -503.44,484.8l-348.25 0c-277.88,0 -506.1,-215.05 -529.38,-505.67l-73.63 -918.35c-11.54,-144.38 203,-443.16 469.27,-499.85l0 -409.55c0,-91.62 71.45,-166.58 158.78,-166.58l264.61 0c87.34,0 158.79,74.98 158.79,166.58l0 414.43c253.18,59.3 453.29,334.13 445.99,494.97zm-89.83 -4.5c3.18,-70.22 -61.06,-168.76 -102.98,-218.71 -70.39,-83.86 -167.75,-155.06 -272.78,-179.67l-70.34 -16.49 0 -490.03c0,-39.53 -31.17,-72.23 -68.85,-72.23l-264.61 0c-37.67,0 -68.84,32.7 -68.84,72.23l0 486.68 -72.05 15.35c-41.89,8.92 -82.23,25.25 -119.93,46.23 -80.59,44.93 -154.91,114.54 -208.89,191.64 -24.41,34.83 -72.37,116.1 -68.71,161.6l73.63 918.35c19.44,242.34 209.17,419.22 439.75,419.22l348.25 0c203.36,0 403.68,-176.74 413.62,-394.95l42.73 -939.22zm-303.1 -611.64c114.58,0 248.46,105.16 158.08,225.21 -20.32,-15.23 -46.41,-33.41 -68.43,-46.09 49.85,-70.44 -49.5,-128.55 -142.71,-95.4l0 -78.24c16.83,-3.57 34.64,-5.48 53.06,-5.48z"/>
   <path class="fil0" d="M2059.58 1379.78l-30.74 821.22c-6.96,186.8 -208.33,340.41 -386.53,340.41l-244.51 0c-195.02,0 -391.92,-150.7 -404.74,-355.06l-48.89 -778.72c-11.03,-176.29 202.77,-364.6 437.75,-383.95l-0.27 -533.7c0,-8.07 -2.57,-43.41 23.2,-43.84 44.95,-0.74 157.31,3.81 209.42,1.87 35.68,-1.34 26.2,48.67 26.06,60.1l-7.28 494.31c176.23,21.19 433.01,203.37 426.53,377.36z"/>
  </g>
 </g>
</svg>
