<?xml version="1.0" encoding="UTF-8"?>
<!DOCTYPE svg PUBLIC "-//W3C//DTD SVG 1.1//EN" "http://www.w3.org/Graphics/SVG/1.1/DTD/svg11.dtd">
<!-- Creator: CorelDRAW 2018 (64-Bit) -->
<svg xmlns="http://www.w3.org/2000/svg" xml:space="preserve" width="30mm" height="30mm" version="1.1" style="shape-rendering:geometricPrecision; text-rendering:geometricPrecision; image-rendering:optimizeQuality; fill-rule:evenodd; clip-rule:evenodd"
viewBox="0 0 3000 3000"
 xmlns:xlink="http://www.w3.org/1999/xlink">
 <defs>
  <style type="text/css">
   <![CDATA[
    .fil0 {fill:forestgreen}
   ]]>
  </style>
 </defs>
 <g id="Слой_x0020_1">
  <metadata id="CorelCorpID_0Corel-Layer"/>
  <g id="_3005967421520">
   <path class="fil0" d="M2248.85 1325.98l-42.74 939.21c-12.09,266.12 -249.48,484.81 -503.45,484.81l-348.24 0c-277.88,0 -506.1,-215.05 -529.38,-505.68l-73.63 -918.34c-11.55,-144.38 203,-443.16 469.26,-499.85l0 -409.56c0,-91.61 71.46,-166.57 158.79,-166.57l264.61 0c87.33,0 158.79,74.98 158.79,166.57l0 414.44c253.17,59.3 453.29,334.13 445.99,494.97zm-89.83 -4.5c3.18,-70.22 -61.07,-168.77 -102.99,-218.71 -70.38,-83.86 -167.74,-155.06 -272.77,-179.67l-70.34 -16.49 0 -490.04c0,-39.52 -31.17,-72.22 -68.85,-72.22l-264.61 0c-37.68,0 -68.84,32.7 -68.84,72.22l0 486.69 -72.05 15.35c-41.9,8.92 -82.23,25.24 -119.93,46.23 -80.6,44.93 -154.91,114.53 -208.9,191.63 -24.4,34.84 -72.36,116.11 -68.71,161.61l73.64 918.34c19.44,242.35 209.17,419.22 439.75,419.22l348.24 0c203.36,0 403.69,-176.73 413.62,-394.94l42.74 -939.22zm-303.1 -611.64c114.57,0 248.45,105.16 158.08,225.21 -20.32,-15.23 -46.41,-33.41 -68.44,-46.09 49.86,-70.44 -49.49,-128.55 -142.7,-95.4l0 -78.25c16.83,-3.57 34.64,-5.47 53.06,-5.47z"/>
   <path class="fil0" d="M2042.72 1829.84l-13.88 371.18c-6.97,186.8 -208.33,340.4 -386.54,340.4l-244.51 0c-195.01,0 -391.91,-150.7 -404.73,-355.06l-22.39 -356.52 971.38 0 100.67 0z"/>
  </g>
 </g>
</svg>
